<svg width="21" height="21" viewBox="0 0 21 21" fill="none" xmlns="http://www.w3.org/2000/svg">
<path d="M1.21443 0.0537109H19.7859C20.0937 0.0537109 20.3889 0.176 20.6066 0.393676C20.8243 0.611352 20.9466 0.906585 20.9466 1.21443V19.7859C20.9466 20.0937 20.8243 20.3889 20.6066 20.6066C20.3889 20.8243 20.0937 20.9466 19.7859 20.9466H1.21443C0.906585 20.9466 0.611352 20.8243 0.393676 20.6066C0.176 20.3889 0.0537109 20.0937 0.0537109 19.7859V1.21443C0.0537109 0.906585 0.176 0.611352 0.393676 0.393676C0.611352 0.176 0.906585 0.0537109 1.21443 0.0537109V0.0537109ZM2.37514 2.37514V18.6251H18.6251V2.37514H2.37514ZM9.33943 9.33943V4.69657H11.6609V9.33943H16.3037V11.6609H11.6609V16.3037H9.33943V11.6609H4.69657V9.33943H9.33943Z" fill="white"/>
</svg>
