<svg width="19" height="21" viewBox="0 0 19 21" fill="none" xmlns="http://www.w3.org/2000/svg">
<path d="M17.9444 21H1.05556C0.775605 21 0.50712 20.8894 0.309165 20.6925C0.11121 20.4955 0 20.2285 0 19.95V1.05C0 0.771523 0.11121 0.504451 0.309165 0.307538C0.50712 0.110625 0.775605 0 1.05556 0H17.9444C18.2244 0 18.4929 0.110625 18.6908 0.307538C18.8888 0.504451 19 0.771523 19 1.05V19.95C19 20.2285 18.8888 20.4955 18.6908 20.6925C18.4929 20.8894 18.2244 21 17.9444 21ZM16.8889 18.9V2.1H2.11111V18.9H16.8889ZM5.27778 5.25H13.7222V7.35H5.27778V5.25ZM5.27778 9.45H13.7222V11.55H5.27778V9.45ZM5.27778 13.65H10.5556V15.75H5.27778V13.65Z" fill="#828282"/>
</svg>
