<svg width="29" height="21" viewBox="0 0 29 21" fill="none" xmlns="http://www.w3.org/2000/svg">
<path d="M15.7277 9.97709C16.3028 9.25576 16.7286 8.51188 17.0051 7.74546C17.2817 6.97904 17.4199 6.08864 17.4199 5.07426C17.4199 4.05989 17.2817 3.16949 17.0051 2.40307C16.7286 1.63665 16.3028 0.892771 15.7277 0.171436C17.4088 -0.211774 18.8854 0.0474566 20.1573 0.949126C21.4293 1.8508 22.0652 3.22584 22.0652 5.07426C22.0652 6.92269 21.4293 8.29773 20.1573 9.1994C18.8854 10.1011 17.4088 10.3603 15.7277 9.97709ZM22.8947 21V17.8216C22.8947 16.672 22.6072 15.6013 22.032 14.6094C21.4569 13.6176 20.4615 12.7835 19.0458 12.1073C22.8726 12.6032 25.4884 13.3245 26.893 14.2713C28.2977 15.218 29 16.4015 29 17.8216V21H22.8947ZM10.4519 10.1462C8.99199 10.1462 7.79748 9.67278 6.86842 8.72602C5.93936 7.77927 5.47483 6.56202 5.47483 5.07426C5.47483 3.58651 5.93936 2.36926 6.86842 1.4225C7.79748 0.475749 8.99199 0.00237274 10.4519 0.00237274C11.9119 0.00237274 13.1064 0.475749 14.0355 1.4225C14.9645 2.36926 15.4291 3.58651 15.4291 5.07426C15.4291 6.56202 14.9645 7.77927 14.0355 8.72602C13.1064 9.67278 11.9119 10.1462 10.4519 10.1462ZM0 21V17.8216C0 17.0327 0.204615 16.317 0.613844 15.6745C1.02307 15.0321 1.57056 14.5531 2.25629 14.2375C3.84897 13.5161 5.27021 12.9977 6.52002 12.6821C7.76983 12.3665 9.08047 12.2087 10.4519 12.2087C11.8234 12.2087 13.1285 12.3665 14.3673 12.6821C15.606 12.9977 17.0217 13.5161 18.6144 14.2375C19.3002 14.5531 19.8532 15.0321 20.2735 15.6745C20.6937 16.317 20.9039 17.0327 20.9039 17.8216V21H0ZM10.4519 8.1174C11.3146 8.1174 12.028 7.82999 12.5921 7.25518C13.1562 6.68036 13.4382 5.95339 13.4382 5.07426C13.4382 4.19514 13.1562 3.46816 12.5921 2.89335C12.028 2.31854 11.3146 2.03113 10.4519 2.03113C9.58924 2.03113 8.87586 2.31854 8.31178 2.89335C7.74771 3.46816 7.46567 4.19514 7.46567 5.07426C7.46567 5.95339 7.74771 6.68036 8.31178 7.25518C8.87586 7.82999 9.58924 8.1174 10.4519 8.1174ZM1.99085 18.9712H18.913V17.8216C18.913 17.4609 18.8246 17.1228 18.6476 16.8072C18.4706 16.4917 18.1941 16.2437 17.8181 16.0634C16.2918 15.342 14.9977 14.8574 13.9359 14.6094C12.8741 14.3615 11.7128 14.2375 10.4519 14.2375C9.19108 14.2375 8.03528 14.3615 6.98455 14.6094C5.93383 14.8574 4.62319 15.342 3.05263 16.0634C2.72082 16.2212 2.46091 16.4635 2.27288 16.7903C2.08486 17.1172 1.99085 17.4609 1.99085 17.8216V18.9712Z" fill="#828282"/>
</svg>
