<svg width="22" height="22" viewBox="0 0 22 22" fill="none" xmlns="http://www.w3.org/2000/svg">
<path d="M10.9083 22C7.87315 22 5.2963 20.9255 3.17778 18.7764C1.05926 16.6273 0 14.025 0 10.9694H1.83333C1.83333 13.5157 2.70926 15.6852 4.46111 17.4778C6.21296 19.2704 8.36204 20.1667 10.9083 20.1667C13.4954 20.1667 15.6852 19.2602 17.4778 17.4472C19.2704 15.6343 20.1667 13.4343 20.1667 10.8472C20.1667 8.3213 19.2602 6.1875 17.4472 4.44583C15.6343 2.70417 13.4546 1.83333 10.9083 1.83333C9.52315 1.83333 8.22454 2.14907 7.0125 2.78056C5.80046 3.41204 4.7463 4.24722 3.85 5.28611H7.05833V7.11944H0.672222V0.763889H2.50556V4.00278C3.56482 2.76019 4.82268 1.78241 6.27917 1.06944C7.73565 0.356481 9.2787 0 10.9083 0C12.4361 0 13.8722 0.285185 15.2167 0.855556C16.5611 1.42593 17.7375 2.20509 18.7458 3.19306C19.7542 4.18102 20.5486 5.33704 21.1292 6.66111C21.7097 7.98519 22 9.41111 22 10.9389C22 12.4667 21.7097 13.9028 21.1292 15.2472C20.5486 16.5917 19.7542 17.763 18.7458 18.7611C17.7375 19.7593 16.5611 20.5486 15.2167 21.1292C13.8722 21.7097 12.4361 22 10.9083 22ZM14.8194 15.9806L10.1139 11.3361V4.79722H11.9472V10.5722L16.1333 14.6667L14.8194 15.9806Z" fill="#828282"/>
</svg>
