<svg width="18" height="21" viewBox="0 0 18 21" fill="none" xmlns="http://www.w3.org/2000/svg">
<path d="M6.7921 3.30398C6.7921 2.86688 6.76389 2.44389 6.7921 2.02089C6.87675 0.921095 7.77966 0.0892003 8.89419 0.00460083C9.95229 -0.0658988 10.954 0.681397 11.1938 1.72479C11.2361 1.90809 11.2502 2.10549 11.2643 2.30289C11.2784 2.62719 11.2643 2.95148 11.2643 3.28988C11.3349 3.31808 11.4195 3.34628 11.4901 3.37448C14.1141 4.24868 15.666 6.09577 16.3009 8.74655C16.4702 9.43745 16.5266 10.1565 16.5266 10.8756C16.5266 11.6934 16.5266 12.5112 16.5266 13.329C16.5266 13.4418 16.5689 13.5546 16.6254 13.6533C16.9781 14.1891 17.3308 14.7108 17.6835 15.2466C18.0644 15.8247 18.1067 16.4451 17.7822 17.0514C17.4577 17.6718 16.9216 17.9961 16.2162 17.9961C14.8901 17.9961 13.5639 17.9961 12.2378 17.9961C12.1672 17.9961 12.0967 17.9961 12.0121 17.9961C11.9697 18.9549 11.617 19.7445 10.8693 20.3367C10.305 20.7879 9.64191 21.0135 8.9083 20.9994C7.52572 20.9712 6.05849 19.8996 5.97384 17.9961C5.9033 17.9961 5.83276 17.9961 5.76222 17.9961C4.43607 17.9961 3.10992 17.9961 1.78377 17.9961C1.07837 17.9961 0.542272 17.6859 0.217788 17.0655C-0.106695 16.4592 -0.0643711 15.8388 0.316544 15.2607C0.669243 14.739 1.02194 14.2173 1.36053 13.6815C1.43107 13.5828 1.4734 13.4418 1.4734 13.329C1.48751 12.201 1.45929 11.0589 1.51572 9.93094C1.67091 6.96996 3.43441 4.33328 6.55227 3.37448C6.63691 3.36038 6.69335 3.33218 6.7921 3.30398ZM9.03527 16.5156C11.3913 16.5156 13.7614 16.5156 16.1175 16.5156C16.2586 16.5156 16.4137 16.5297 16.4984 16.3746C16.583 16.2195 16.4843 16.1067 16.3996 15.9939C16.0469 15.4581 15.6942 14.9364 15.3415 14.4006C15.144 14.1045 15.0594 13.7943 15.0594 13.4418C15.0594 12.5958 15.0735 11.7498 15.0594 10.9038C15.0453 10.3398 15.0029 9.76174 14.9042 9.19775C14.622 7.77365 13.9448 6.57516 12.7739 5.68687C11.6735 4.85497 10.4037 4.51657 9.04938 4.53067C7.75145 4.53067 6.53816 4.84087 5.46595 5.58817C3.81532 6.71616 3.09581 8.32355 3.02527 10.2552C2.98295 11.2563 3.01117 12.2574 3.02527 13.2585C3.03938 13.752 2.8983 14.175 2.61614 14.5698C2.26344 15.0492 1.93896 15.5568 1.61448 16.0644C1.45929 16.3041 1.55805 16.5015 1.8402 16.5156C1.89664 16.5156 1.95307 16.5156 2.0095 16.5156C4.35142 16.5156 6.69335 16.5156 9.03527 16.5156ZM10.5025 18.0102C9.51494 18.0102 8.54149 18.0102 7.55393 18.0102C7.48339 18.7857 8.2029 19.4907 9.03527 19.4907C9.86764 19.5048 10.573 18.7857 10.5025 18.0102ZM9.76888 3.03608C9.76888 2.76818 9.76888 2.51439 9.76888 2.24649C9.76888 1.86579 9.47262 1.55559 9.10581 1.54149C8.69668 1.51329 8.34398 1.76709 8.30165 2.13369C8.27344 2.42979 8.30165 2.73998 8.30165 3.03608C8.78133 3.03608 9.261 3.03608 9.76888 3.03608Z" fill="#B1B0B8"/>
</svg>
