<svg width="22" height="22" viewBox="0 0 22 22" fill="none" xmlns="http://www.w3.org/2000/svg">
<path fill-rule="evenodd" clip-rule="evenodd" d="M5.10063 8.86586C5.34717 9.42315 5.68673 9.93642 6.10468 10.3858C4.45355 10.7295 2.9592 11.585 1.85561 12.8283C0.660971 14.1742 0.00242472 15.8868 0 17.659V19.8758C0.000509564 20.4418 0.234719 20.9827 0.64818 21.3803C1.06137 21.7775 1.62011 21.9995 2.20093 22H19.7994C20.3802 21.9995 20.9386 21.7775 21.3518 21.3803C21.7653 20.9827 21.9995 20.4416 22 19.8756V17.6587C21.9976 15.8867 21.3393 14.1747 20.145 12.8289C19.0418 11.5856 17.5479 10.7299 15.897 10.3859C16.315 9.93647 16.6545 9.42317 16.9011 8.86586C17.2037 8.18174 17.3599 7.44561 17.36 6.7016V5.54344C17.3586 4.07087 16.7495 2.66081 15.6693 1.62222C14.5894 0.583903 13.1267 0.0013627 11.603 0H10.3985C8.87479 0.0013627 7.41237 0.583906 6.33249 1.62222C5.25232 2.66081 4.64323 4.07107 4.64181 5.54365V6.70163C4.64191 7.44562 4.79797 8.18172 5.10063 8.86586ZM19.8967 17.6594L19.9139 19.8744C19.9136 19.8979 19.9037 19.923 19.8839 19.942C19.8636 19.9616 19.8343 19.9741 19.802 19.9744H2.20313C2.17093 19.9741 2.14174 19.9616 2.12136 19.942C2.10122 19.9227 2.09144 19.8983 2.0912 19.8748V17.6592C2.09432 16.2284 2.68676 14.8552 3.74182 13.8407C4.79722 12.8259 6.22958 12.2532 7.72564 12.2502H14.2624C15.7584 12.2532 17.1907 12.8259 18.2461 13.8407C19.3012 14.8552 19.8937 16.2285 19.8967 17.6594ZM6.73458 5.54561C6.73587 4.61567 7.12065 3.72236 7.80735 3.06209C8.49429 2.4016 9.42727 2.02853 10.4022 2.02723H11.6064C12.5813 2.02853 13.5143 2.4016 14.2013 3.06209C14.888 3.72236 15.2727 4.61567 15.274 5.54561V6.70292C15.2727 7.63287 14.888 8.52618 14.2013 9.18644C13.5143 9.84698 12.5812 10.2201 11.6062 10.2213H10.4024C9.4274 10.2201 8.49434 9.84698 7.80735 9.18644C7.12065 8.52618 6.73587 7.63287 6.73458 6.70292V5.54561Z" fill="#007184"/>
</svg>
