<svg width="28" height="23" viewBox="0 0 28 23" fill="none" xmlns="http://www.w3.org/2000/svg">
<path fill-rule="evenodd" clip-rule="evenodd" d="M14.8695 0.514578C14.0877 -0.171526 12.9175 -0.171526 12.1357 0.514578L0.525721 10.7041C-0.542602 11.6417 0.128686 13.3903 1.53898 13.3903H3.40279V20.8371C3.40279 21.3854 3.58559 21.8944 3.9517 22.3128C4.31778 22.7314 4.81923 22.9997 5.41812 22.9997H12.5096V18.2288H14.5712V23H21.5868C22.1845 23 22.687 22.7328 23.0538 22.3122C23.4194 21.8944 23.6025 21.3855 23.6025 20.8371V13.3903H25.4663C26.8765 13.3903 27.5478 11.6417 26.4795 10.7041L14.8695 0.514578ZM13.455 2.01776C13.482 1.99408 13.5233 1.99408 13.5503 2.01776L23.9965 11.1231C24.3449 11.4268 24.1301 12 23.668 12H21.6026L21.6025 19C21.6025 19.0404 21.5891 19.5382 21.5756 20.0265C21.5606 20.5664 21.1194 20.9967 20.5792 20.9983L20.0025 21H16.5712V16.2288H10.5097V20.9997H7.00254L6.36136 20.9981C5.78642 20.9966 5.42933 20.6678 5.41796 20.093C5.4079 19.5846 5.40282 19.0428 5.40282 19L5.40286 12H3.33719C2.87503 12 2.66026 11.4267 3.00865 11.1231L13.455 2.01776Z" fill="#007184"/>
</svg>
