<svg width="45" height="22" viewBox="0 0 45 22" fill="none" xmlns="http://www.w3.org/2000/svg">
<path d="M24.3546 11.2838L24.3547 11.2836C25.7208 8.54592 26.7953 6.39757 28.1544 4.92519C29.4942 3.47375 31.1132 2.67858 33.597 2.67858C38.1852 2.67858 41.9185 6.41188 41.9185 10.9999C41.9185 15.5881 38.1852 19.3214 33.597 19.3214C31.8279 19.3214 30.1404 18.7744 28.7147 17.7394L24.3546 11.2838ZM24.3546 11.2838L24.1024 11.7884L24.1024 11.7885M24.3546 11.2838L24.1024 11.7885M24.1024 11.7885C22.5727 14.8478 20.5684 17.2078 18.552 18.8052C16.542 20.3975 14.4963 21.25 12.8827 21.25H11.4542C5.80195 21.25 1.2041 16.6523 1.2041 10.9999C1.2041 5.34784 5.80195 0.75 11.4542 0.75C13.8433 0.75 16.1689 1.58955 18.0031 3.11445M24.1024 11.7885L27.5818 19.2998M27.5818 19.2998C29.3389 20.5757 31.4194 21.25 33.597 21.25C39.2492 21.25 43.8471 16.6523 43.8471 10.9999C43.8471 5.34784 39.2492 0.75 33.597 0.75C30.5355 0.75 28.474 1.77784 26.8339 3.52002C25.2161 5.23847 24.0128 7.64958 22.6424 10.3956L22.6291 10.4222L22.629 10.4224L22.3773 10.9259C21.0568 13.5669 19.3185 15.6727 17.5851 17.1156C15.8432 18.5657 14.1373 19.3214 12.8827 19.3214H11.4542C6.86599 19.3214 3.13268 15.5881 3.13268 10.9999C3.13268 6.41188 6.86598 2.67858 11.4542 2.67858C13.3936 2.67858 15.2819 3.36029 16.7704 4.5977C17.1793 4.9381 17.788 4.88242 18.1284 4.47231M27.5818 19.2998C27.1505 18.9871 27.0549 18.3838 27.368 17.953M27.5818 19.2998L27.368 17.953M18.1284 4.47231L17.936 4.31265L18.1283 4.47245C18.1283 4.4724 18.1284 4.47236 18.1284 4.47231ZM18.1284 4.47231C18.4688 4.0627 18.4128 3.45491 18.0031 3.11445M18.0031 3.11445L17.8433 3.30671L18.0031 3.11445ZM27.368 17.953C27.6804 17.5226 28.2845 17.427 28.7146 17.7393L27.368 17.953Z" fill="white" stroke="white" stroke-width="0.5"/>
</svg>
